<svg width="48" height="48" viewBox="0 0 48 48" fill="none" xmlns="http://www.w3.org/2000/svg">
<path d="M26.3397 4C16.5797 4 8.67969 11.38 8.67969 20.48C8.67969 21 8.6997 21.5 8.7597 22C10.5397 20.84 12.6797 20.1801 14.9997 20.1801C21.0797 20.1801 25.9997 24.78 25.9997 30.46C25.9997 32.84 25.1197 35.04 23.6397 36.78C24.5197 36.9 25.4197 36.96 26.3397 36.96L34.7197 41.9399C36.1397 42.7999 37.9197 41.64 37.7197 39.98L36.9397 33.66C41.2197 30.66 43.9997 25.88 43.9997 20.48C43.9997 14.34 40.3997 8.98001 35.0397 6.14001" stroke="#6683E9" stroke-width="2" stroke-linecap="round" stroke-linejoin="round"/>
<path d="M8.76001 22.0001C10.54 20.8401 12.68 20.1802 15 20.1802C21.08 20.1802 26 24.7801 26 30.4601C26 32.8401 25.12 35.0402 23.64 36.7802C21.66 39.1802 18.52 40.7201 15 40.7201L9.78 43.8201C8.9 44.3601 7.77999 43.6201 7.89999 42.6001L8.39999 38.6602C5.71999 36.8002 4 33.8201 4 30.4601C4 29.8601 4.06 29.2801 4.16 28.7201" stroke="#6683E9" stroke-width="2" stroke-linecap="round" stroke-linejoin="round"/>
</svg>
