<svg width="24" height="24" viewBox="0 0 24 24" fill="none" xmlns="http://www.w3.org/2000/svg">
<path d="M12.0008 2H8.70078C6.80078 2 5.30078 3.5 5.30078 5.3C5.30078 7.1 6.80078 8.6 8.60078 8.6H12.0008V2Z" stroke="#6683E9" stroke-width="1.5" stroke-miterlimit="10"/>
<path d="M11.9984 8.70001H8.69844C6.89844 8.70001 5.39844 10.2 5.39844 12C5.39844 13.8 6.89844 15.3 8.69844 15.3H11.9984V8.70001Z" stroke="#6683E9" stroke-width="1.5" stroke-miterlimit="10"/>
<path d="M11.9984 15.3H8.69844C6.89844 15.3 5.39844 16.8 5.39844 18.6C5.39844 20.4 6.89844 21.9 8.69844 21.9C10.4984 21.9 11.9984 20.4 11.9984 18.6V15.3Z" stroke="#6683E9" stroke-width="1.5" stroke-miterlimit="10"/>
<path d="M12 2H15.3C17.1 2 18.6 3.5 18.6 5.3C18.6 7.1 17.1 8.6 15.3 8.6H12V2Z" stroke="#6683E9" stroke-width="1.5" stroke-miterlimit="10"/>
<path d="M15.3 8.70001C17.1 8.70001 18.6 10.2 18.6 12C18.6 13.8 17.1 15.3 15.3 15.3C13.5 15.3 12 13.8 12 12C12 10.2 13.5 8.70001 15.3 8.70001Z" stroke="#6683E9" stroke-width="1.5" stroke-miterlimit="10"/>
</svg>
