<svg width="125" height="30" viewBox="0 0 125 30" fill="none" xmlns="http://www.w3.org/2000/svg">
<g opacity="0.5">
<path d="M67.835 8.88889C67.835 4.69863 67.835 2.6035 69.1744 1.30175C70.5139 0 72.6697 0 76.9813 0H115.853C120.165 0 122.321 0 123.66 1.30175C125 2.6035 125 4.69863 125 8.88889V21.1111C125 25.3014 125 27.3965 123.66 28.6983C122.321 30 120.165 30 115.853 30H76.9813C72.6697 30 70.5139 30 69.1744 28.6983C67.835 27.3965 67.835 25.3014 67.835 21.1111V8.88889Z" fill="#717171"/>
<path d="M11.5744 9.16135L8.05326 14.1412L4.53206 9.16135H0.370652L5.96413 17.0725L0 25.5H4.17826L8.05326 20.0205L11.9451 25.5H16.1065L10.1424 17.0725L15.7527 9.16135H11.5744Z" fill="#717171"/>
<path d="M27.6311 17.339C27.6311 18.6825 27.3559 19.754 26.8055 20.5534C26.0867 21.5972 24.9242 22.119 23.3181 22.119C21.7007 22.119 20.5325 21.5916 19.8137 20.5368C19.2746 19.7373 19.005 18.6659 19.005 17.3223C19.005 15.9788 19.2746 14.9018 19.8137 14.0913C20.5325 13.0475 21.7007 12.5257 23.3181 12.5257C24.9242 12.5257 26.0867 13.0475 26.8055 14.0913C27.3559 14.8907 27.6311 15.9622 27.6311 17.3057V17.339ZM27.6311 10.4938C26.9347 9.91638 26.1036 9.52776 25.1376 9.3279L24.9691 9.27793C24.4412 9.18911 23.8909 9.14469 23.3181 9.14469C22.7452 9.14469 22.1949 9.18911 21.667 9.27793L21.4985 9.3279C19.6677 9.68321 18.2244 10.5659 17.1686 11.9761C16.1128 13.3973 15.5849 15.1794 15.5849 17.3223C15.5849 19.4542 16.1128 21.2252 17.1686 22.6353C18.2019 24.0455 19.6284 24.9393 21.4479 25.3168L21.6333 25.3501C22.1724 25.45 22.734 25.5 23.3181 25.5C23.9021 25.5 24.4637 25.45 25.0028 25.3501L25.1882 25.3168C26.1316 25.1058 26.9459 24.7172 27.6311 24.1509V25.5H31.0512V9.16135H27.6311V10.4938Z" fill="#717171"/>
<path d="M37.3867 17.3223C37.3867 15.9788 37.6618 14.9074 38.2122 14.1079C38.931 13.0642 40.0935 12.5423 41.6997 12.5423V9.16135C41.1156 9.16135 40.554 9.21131 40.0149 9.31124L39.8464 9.34455C38.8917 9.56662 38.0718 9.96079 37.3867 10.5271V9.178H33.9665V25.5H37.3867V17.3223Z" fill="#717171"/>
<path d="M42.9471 25.5H46.3672V9.14469H42.9471V25.5ZM44.6656 7.07946C45.1822 7.07946 45.6203 6.89625 45.9797 6.52984C46.3504 6.16343 46.5357 5.72484 46.5357 5.21409C46.5357 4.70333 46.3504 4.26475 45.9797 3.89833C45.6203 3.54303 45.1822 3.36537 44.6656 3.36537C44.1377 3.36537 43.694 3.54303 43.3346 3.89833C42.964 4.26475 42.7786 4.70333 42.7786 5.21409C42.7786 5.72484 42.964 6.16343 43.3346 6.52984C43.694 6.89625 44.1377 7.07946 44.6656 7.07946Z" fill="#717171"/>
<path d="M56.2912 12.5257C57.8974 12.5257 59.0599 13.0475 59.7787 14.0913C60.3291 14.8907 60.6043 15.9622 60.6043 17.3057V17.339C60.6043 18.6825 60.3291 19.754 59.7787 20.5534C59.0599 21.5972 57.8974 22.119 56.2912 22.119C54.6739 22.119 53.5057 21.5916 52.7869 20.5368C52.2478 19.7373 51.9782 18.6659 51.9782 17.3223C51.9782 15.9788 52.2478 14.9018 52.7869 14.0913C53.5057 13.0475 54.6739 12.5257 56.2912 12.5257ZM54.6065 25.3501C55.1456 25.45 55.7072 25.5 56.2912 25.5C56.8753 25.5 57.4369 25.45 57.976 25.3501L58.1614 25.3168C59.1048 25.1058 59.9191 24.7172 60.6043 24.1509V25.5H64.0244V1.5H60.6043V10.4938C59.9079 9.91638 59.0768 9.52776 58.1108 9.3279L57.9423 9.27793C57.4144 9.18911 56.8641 9.14469 56.2912 9.14469C55.7184 9.14469 55.1681 9.18911 54.6402 9.27793L54.4717 9.3279C52.6409 9.68321 51.1976 10.5659 50.1418 11.9761C49.086 13.3973 48.5581 15.1794 48.5581 17.3223C48.5581 19.4542 49.086 21.2252 50.1418 22.6353C51.1751 24.0455 52.6016 24.9393 54.4211 25.3168L54.6065 25.3501Z" fill="#717171"/>
<path d="M73.3401 25.5H76.7745V9.14469H73.3401V25.5ZM75.0657 7.07946C75.5845 7.07946 76.0244 6.89625 76.3853 6.52984C76.7575 6.16343 76.9436 5.72484 76.9436 5.21409C76.9436 4.70333 76.7575 4.26475 76.3853 3.89833C76.0244 3.54303 75.5845 3.36537 75.0657 3.36537C74.5356 3.36537 74.0901 3.54303 73.7292 3.89833C73.357 4.26475 73.1709 4.70333 73.1709 5.21409C73.1709 5.72484 73.357 6.16343 73.7292 6.52984C74.0901 6.89625 74.5356 7.07946 75.0657 7.07946Z" fill="white"/>
<path d="M90.5803 9.86086C89.6216 9.38341 88.5501 9.14469 87.3659 9.14469C86.1816 9.14469 85.1101 9.38341 84.1514 9.86086C83.9935 9.94969 83.8413 10.0441 83.6946 10.144V9.16135H80.2603V25.5H83.6946V17.2058C83.7059 15.8845 83.9484 14.8352 84.4221 14.0579C85.0312 13.0364 86.0124 12.5257 87.3659 12.5257C88.7419 12.5257 89.7344 13.0531 90.3435 14.1079C90.8059 14.9074 91.0371 15.9788 91.0371 17.3223V25.5H94.4715V17.3223C94.4715 15.5458 94.1275 14.008 93.4395 12.7089C92.7628 11.4209 91.8097 10.4715 90.5803 9.86086Z" fill="white"/>
<path d="M97.5851 25.5H101.019V12.5257H103.117V9.14469H101.019C101.098 7.91221 101.426 6.94067 102.001 6.23005C102.734 5.31957 103.85 4.86433 105.351 4.86433V1.5C103.083 1.5 101.251 2.18841 99.8521 3.56523C98.4536 4.95316 97.7035 6.81298 97.602 9.14469H95.2673V12.5257H97.5851V25.5Z" fill="white"/>
<path d="M111.137 22.119C109.513 22.119 108.34 21.5972 107.618 20.5534C107.077 19.7429 106.806 18.6659 106.806 17.3223C106.806 15.9788 107.077 14.9018 107.618 14.0913C108.34 13.0475 109.513 12.5257 111.137 12.5257C112.761 12.5257 113.934 13.0475 114.656 14.0913C115.209 14.9018 115.485 15.9788 115.485 17.3223C115.485 18.6659 115.209 19.7429 114.656 20.5534C113.934 21.5972 112.761 22.119 111.137 22.119ZM111.137 9.14469C108.78 9.14469 106.896 9.88862 105.487 11.3765C104.077 12.8532 103.372 14.8352 103.372 17.3223C103.372 19.8095 104.077 21.7915 105.487 23.2682C106.896 24.7561 108.78 25.5 111.137 25.5C113.494 25.5 115.378 24.7561 116.788 23.2682C118.198 21.7915 118.903 19.8095 118.903 17.3223C118.903 14.8352 118.198 12.8532 116.788 11.3765C115.378 9.88862 113.494 9.14469 111.137 9.14469Z" fill="white"/>
</g>
</svg>
