<svg width="48" height="48" viewBox="0 0 48 48" fill="none" xmlns="http://www.w3.org/2000/svg">
<rect opacity="0.25" x="0.5" y="0.5" width="47" height="47" rx="23.5" stroke="black"/>
<path fill-rule="evenodd" clip-rule="evenodd" d="M28.3078 16H20.9231C18.8839 16 17.2308 17.6531 17.2308 19.6923V27.077C17.2308 29.1162 18.8839 30.7693 20.9231 30.7693H28.3078C30.347 30.7693 32.0001 29.1162 32.0001 27.077V19.6923C32.0001 17.6531 30.347 16 28.3078 16ZM24.6154 21.8654C23.7763 21.8654 23.0961 22.5456 23.0961 23.3846C23.0961 24.2237 23.7763 24.9039 24.6154 24.9039C25.4545 24.9039 26.1346 24.2237 26.1346 23.3846C26.1346 22.5456 25.4545 21.8654 24.6154 21.8654ZM20.5961 23.3846C20.5961 21.1649 22.3956 19.3654 24.6154 19.3654C26.8352 19.3654 28.6346 21.1649 28.6346 23.3846C28.6346 25.6044 26.8352 27.4039 24.6154 27.4039C22.3956 27.4039 20.5961 25.6044 20.5961 23.3846ZM30.0193 19.2308C30.0193 18.5404 29.4596 17.9808 28.7693 17.9808C28.0789 17.9808 27.5193 18.5404 27.5193 19.2308V19.2318C27.5193 19.9221 28.0789 20.4818 28.7693 20.4818C29.4596 20.4818 30.0193 19.9221 30.0193 19.2318V19.2308Z" fill="black"/>
<path d="M20.9231 16.5H28.3078V15.5H20.9231V16.5ZM17.7308 19.6923C17.7308 17.9293 19.16 16.5 20.9231 16.5V15.5C18.6077 15.5 16.7308 17.377 16.7308 19.6923H17.7308ZM17.7308 27.077V19.6923H16.7308V27.077H17.7308ZM20.9231 30.2693C19.16 30.2693 17.7308 28.8401 17.7308 27.077H16.7308C16.7308 29.3924 18.6077 31.2693 20.9231 31.2693V30.2693ZM28.3078 30.2693H20.9231V31.2693H28.3078V30.2693ZM31.5001 27.077C31.5001 28.8401 30.0709 30.2693 28.3078 30.2693V31.2693C30.6231 31.2693 32.5001 29.3924 32.5001 27.077H31.5001ZM31.5001 19.6923V27.077H32.5001V19.6923H31.5001ZM28.3078 16.5C30.0709 16.5 31.5001 17.9293 31.5001 19.6923H32.5001C32.5001 17.377 30.6231 15.5 28.3078 15.5V16.5ZM23.5961 23.3846C23.5961 22.8217 24.0525 22.3654 24.6154 22.3654V21.3654C23.5002 21.3654 22.5961 22.2694 22.5961 23.3846H23.5961ZM24.6154 24.4039C24.0525 24.4039 23.5961 23.9476 23.5961 23.3846H22.5961C22.5961 24.4998 23.5002 25.4039 24.6154 25.4039V24.4039ZM25.6346 23.3846C25.6346 23.9476 25.1783 24.4039 24.6154 24.4039V25.4039C25.7306 25.4039 26.6346 24.4998 26.6346 23.3846H25.6346ZM24.6154 22.3654C25.1783 22.3654 25.6346 22.8217 25.6346 23.3846H26.6346C26.6346 22.2694 25.7306 21.3654 24.6154 21.3654V22.3654ZM24.6154 18.8654C22.1195 18.8654 20.0961 20.8887 20.0961 23.3846H21.0961C21.0961 21.441 22.6718 19.8654 24.6154 19.8654V18.8654ZM29.1346 23.3846C29.1346 20.8887 27.1113 18.8654 24.6154 18.8654V19.8654C26.559 19.8654 28.1346 21.441 28.1346 23.3846H29.1346ZM24.6154 27.9039C27.1113 27.9039 29.1346 25.8806 29.1346 23.3846H28.1346C28.1346 25.3283 26.559 26.9039 24.6154 26.9039V27.9039ZM20.0961 23.3846C20.0961 25.8806 22.1195 27.9039 24.6154 27.9039V26.9039C22.6718 26.9039 21.0961 25.3283 21.0961 23.3846H20.0961ZM28.7693 18.4808C29.1835 18.4808 29.5193 18.8166 29.5193 19.2308H30.5193C30.5193 18.2643 29.7358 17.4808 28.7693 17.4808V18.4808ZM28.0193 19.2308C28.0193 18.8166 28.3551 18.4808 28.7693 18.4808V17.4808C27.8028 17.4808 27.0193 18.2643 27.0193 19.2308H28.0193ZM28.0193 19.2318V19.2308H27.0193V19.2318H28.0193ZM28.7693 19.9818C28.3551 19.9818 28.0193 19.646 28.0193 19.2318H27.0193C27.0193 20.1983 27.8028 20.9818 28.7693 20.9818V19.9818ZM29.5193 19.2318C29.5193 19.646 29.1835 19.9818 28.7693 19.9818V20.9818C29.7358 20.9818 30.5193 20.1983 30.5193 19.2318H29.5193ZM29.5193 19.2308V19.2318H30.5193V19.2308H29.5193Z" fill="black"/>
</svg>
