<svg width="48" height="48" viewBox="0 0 48 48" fill="none" xmlns="http://www.w3.org/2000/svg">
<path d="M4.00009 24.4401C3.78009 13.2001 12.6601 4.1001 23.9001 4.1001C35.1401 4.1001 44.0001 13.2001 44.0001 24.2201V36.5401C44.0001 40.4401 40.7601 43.6801 36.8601 43.6801C32.9601 43.6801 29.7201 40.4401 29.7201 36.5401V30.9201C29.7201 28.9801 31.2401 27.2401 33.4001 27.2401C35.3401 27.2401 37.0801 28.7601 37.0801 30.9201V36.9801" stroke="#6683E9" stroke-width="2" stroke-linecap="round" stroke-linejoin="round"/>
<path d="M10.92 36.98V31.14C10.92 29.2 12.44 27.46 14.6 27.46C16.54 27.46 18.28 28.98 18.28 31.14V36.76C18.28 40.66 15.04 43.9 11.14 43.9C7.24 43.9 4 40.64 4 36.76V32" stroke="#6683E9" stroke-width="2" stroke-linecap="round" stroke-linejoin="round"/>
</svg>
