<svg width="48" height="48" viewBox="0 0 48 48" fill="none" xmlns="http://www.w3.org/2000/svg">
<rect opacity="0.25" x="0.5" y="0.5" width="47" height="47" rx="23.5" stroke="black"/>
<path fill-rule="evenodd" clip-rule="evenodd" d="M19.6923 31.9998H16V20.9229H19.6923V31.9998V31.9998Z" fill="black"/>
<path fill-rule="evenodd" clip-rule="evenodd" d="M17.8352 18.4614H17.8142C16.7123 18.4614 16 17.6405 16 16.6146C16 15.567 16.734 14.769 17.8568 14.769C18.9796 14.769 19.671 15.567 19.6923 16.6146C19.6923 17.6405 18.9796 18.4614 17.8352 18.4614V18.4614Z" fill="black"/>
<path fill-rule="evenodd" clip-rule="evenodd" d="M33.2306 31.9995H29.6024V26.2094C29.6024 24.7551 29.0774 23.7627 27.7639 23.7627C26.7615 23.7627 26.1644 24.4317 25.9022 25.0779C25.8062 25.3095 25.7827 25.6321 25.7827 25.9556V31.9998H22.1539C22.1539 31.9998 22.2017 22.1928 22.1539 21.1773H25.7827V22.7102C26.2642 21.9733 27.1267 20.9229 29.0532 20.9229C31.4408 20.9229 33.2308 22.47 33.2308 25.7942L33.2306 31.9995V31.9995Z" fill="black"/>
</svg>
