<svg width="28" height="35" viewBox="0 0 28 35" fill="none" xmlns="http://www.w3.org/2000/svg">
<path d="M15.7792 20.4003C18.9215 19.6149 20.4899 17.1539 20.5997 14.0917C20.7081 11.1075 18.4335 8.16975 15.4856 7.49689C14.61 7.29509 13.7023 7.27507 12.8186 7.43806C11.9349 7.60106 11.0939 7.94361 10.3475 8.4446C9.60105 8.9456 8.96499 9.59441 8.47852 10.351C7.99205 11.1077 7.66548 11.9561 7.51894 12.844C7.43472 13.4237 7.39757 14.0093 7.40785 14.595C7.40256 20.1774 7.40256 25.7606 7.40785 31.3448C7.40785 33.1329 6.10123 34.5806 4.34629 34.8905C1.80579 35.3409 -0.0377648 33.2097 0.000587458 31.1276C0.0971292 26.0308 0.0614225 20.9288 0.0124904 15.8294C0.000587982 14.5049 -0.0258617 13.1804 0.173834 11.8625C0.73023 8.20856 2.70996 4.92443 5.67934 2.72955C8.64873 0.53466 12.3657 -0.39204 16.0159 0.152449C18.1396 0.451194 20.1651 1.23967 21.9328 2.45578C24.9203 4.52335 26.9199 7.35649 27.6605 10.9221C28.5598 15.2453 27.6856 19.2255 24.8832 22.7249C23.6533 24.26 22.4208 25.3832 20.6817 26.2878C20.4264 26.4203 20.2982 26.4825 20.1157 26.1381C19.4994 24.9805 18.8672 23.9699 18.206 22.8388C17.6175 21.8268 17.0713 20.8705 15.7792 20.4003Z" fill="#202C57"/>
<path d="M14.1425 20.6149C15.6355 20.5381 16.7359 21.2944 17.4394 22.4692C18.8558 24.8203 20.1915 27.2216 21.5563 29.6044C22.8325 31.8336 21.3804 34.8283 18.422 34.9939C16.8456 35.0813 15.7003 34.2296 14.9214 32.8945C13.6068 30.6428 12.3161 28.3911 11.0042 26.1395C9.37091 23.3288 11.4869 20.7527 14.1425 20.6149Z" fill="#F24B50"/>
</svg>
