<svg width="48" height="48" viewBox="0 0 48 48" fill="none" xmlns="http://www.w3.org/2000/svg">
<path d="M33 7.32001C35.76 9.70001 37.5 13.16 37.5 17C37.5 24.18 31.46 30 24 30C16.54 30 10.5 24.18 10.5 17C10.5 9.82 16.54 4 24 4" stroke="white" stroke-width="2" stroke-linecap="round" stroke-linejoin="round"/>
<path d="M15.0395 27.0399L15.0195 41.7999C15.0195 43.5999 16.2795 44.4799 17.8395 43.7399L23.1995 41.1999C23.6395 40.9799 24.3795 40.9799 24.8195 41.1999L30.1995 43.7399C31.7395 44.4599 33.0195 43.5999 33.0195 41.7999V26.6799" stroke="white" stroke-width="2" stroke-linecap="round" stroke-linejoin="round"/>
<path d="M23.6914 23.75C23.6914 24.4404 24.251 25 24.9414 25C25.6318 25 26.1914 24.4404 26.1914 23.75V11.25C26.1914 10.5596 25.6318 10 24.9414 10H24.6557C24.1231 10 23.6914 10.4317 23.6914 10.9643C23.6914 11.3929 23.1278 11.6071 22.6187 11.6071H21.1967C20.5358 11.6071 20.0001 12.1429 20.0002 12.8038C20.0004 13.4645 20.536 14 21.1967 14H23.6914V23.75Z" fill="white"/>
</svg>
