<svg width="24" height="24" viewBox="0 0 24 24" fill="none" xmlns="http://www.w3.org/2000/svg">
<path d="M7.60156 7.60001V3.90001C7.60156 3.10001 8.20156 2.40001 9.00156 2.20001C11.0016 1.90001 13.0016 1.90001 15.0016 2.20001C15.8016 2.30001 16.4016 3.00001 16.4016 3.90001V9.80001C16.4016 11 15.4016 12 14.2016 12H9.80156C8.60156 12 7.60156 13 7.60156 14.2V20.1C7.60156 20.9 8.20156 21.6 9.00156 21.8C11.0016 22.1 13.0016 22.1 15.0016 21.8C15.8016 21.7 16.4016 21 16.4016 20.1V16.4" stroke="#6683E9" stroke-width="1.5" stroke-linecap="round" stroke-linejoin="round"/>
<path d="M16.4 7.60001H20.1C20.9 7.60001 21.6 8.20001 21.8 9.00001C22.1 11 22.1 13 21.8 15C21.7 15.8 21 16.4 20.1 16.4H12" stroke="#6683E9" stroke-width="1.5" stroke-linecap="round" stroke-linejoin="round"/>
<path d="M12.0016 7.60001H3.90156C3.10156 7.60001 2.40156 8.20001 2.20156 9.00001C1.90156 11 1.90156 13 2.20156 15C2.30156 15.8 3.00156 16.4 3.90156 16.4H7.60156" stroke="#6683E9" stroke-width="1.5" stroke-linecap="round" stroke-linejoin="round"/>
<path d="M10 4.85001V4.85001" stroke="#6683E9" stroke-width="1.5" stroke-linecap="round" stroke-linejoin="round"/>
<path d="M14 19.15V19.15" stroke="#6683E9" stroke-width="1.5" stroke-linecap="round" stroke-linejoin="round"/>
</svg>
