<svg width="24" height="24" viewBox="0 0 24 24" fill="none" xmlns="http://www.w3.org/2000/svg">
<path d="M12 21C16.9706 21 21 16.9706 21 12C21 7.02944 16.9706 3 12 3C7.02944 3 3 7.02944 3 12C3 16.9706 7.02944 21 12 21Z" stroke="#717171" stroke-width="1.5" stroke-linecap="round" stroke-linejoin="round"/>
<path d="M12.0002 10.523C14.4602 9.69695 16.0022 9.69695 16.0022 8.36795C16.0022 7.00195 14.6552 7.00195 13.2672 7.00195C11.3572 7.00195 9.91516 7.49195 8.73016 8.74995C7.88216 9.65195 7.70316 11.199 8.57716 12.057C9.55016 13.013 11.7832 13.846 11.4612 15.55C11.2282 16.785 9.99216 17.373 8.84416 16.752C8.06216 16.328 8.39016 15.006 9.47016 14.24C10.5502 13.474 12.2922 13.248 13.5702 14C14.5502 14.575 14.6162 15.724 14.0042 16.193" stroke="#717171" stroke-width="1.5" stroke-linecap="round" stroke-linejoin="round"/>
</svg>
