<svg width="24" height="24" viewBox="0 0 24 24" fill="none" xmlns="http://www.w3.org/2000/svg">
<path d="M3 4.96997C3 3.32997 4.34 2 6 2H18C19.66 2 21 3.32997 21 4.96997V15.88C21 17.52 19.66 18.85 18 18.85H17.24C16.44 18.85 15.68 19.16 15.12 19.72L13.41 21.41C12.63 22.18 11.36 22.18 10.58 21.41L8.87 19.72C8.31 19.16 7.54 18.85 6.75 18.85H6C4.34 18.85 3 17.52 3 15.88V9.03003" stroke="#6683E9" stroke-width="1.5" stroke-miterlimit="10" stroke-linecap="round" stroke-linejoin="round"/>
<path d="M12.0019 10C13.2887 10 14.3319 8.95681 14.3319 7.66998C14.3319 6.38316 13.2887 5.34003 12.0019 5.34003C10.7151 5.34003 9.67188 6.38316 9.67188 7.66998C9.67188 8.95681 10.7151 10 12.0019 10Z" stroke="#6683E9" stroke-width="1.5" stroke-linecap="round" stroke-linejoin="round"/>
<path d="M16 15.66C16 13.86 14.21 12.4 12 12.4C9.79 12.4 8 13.86 8 15.66" stroke="#6683E9" stroke-width="1.5" stroke-linecap="round" stroke-linejoin="round"/>
</svg>
