<svg width="48" height="48" viewBox="0 0 48 48" fill="none" xmlns="http://www.w3.org/2000/svg">
<path d="M16 4V10" stroke="white" stroke-width="2" stroke-miterlimit="10" stroke-linecap="round" stroke-linejoin="round"/>
<path d="M32 4V10" stroke="white" stroke-width="2" stroke-miterlimit="10" stroke-linecap="round" stroke-linejoin="round"/>
<path d="M6 19.3C6 9.9 9.34 7.38 16 7H32C38.66 7.36 42 9.9 42 19.3V31.66C42 39.9 40 44.02 30 44.02H18C8 44.02 6 39.9 6 31.66V28" stroke="white" stroke-width="2" stroke-miterlimit="10" stroke-linecap="round" stroke-linejoin="round"/>
<path d="M41.5 35.2H6.5" stroke="white" stroke-width="2" stroke-miterlimit="10" stroke-linecap="round" stroke-linejoin="round"/>
<path d="M13.8273 26.9535C14.8137 26.7508 15.6616 26.315 16.2639 25.6633C16.8676 25.01 17.2181 24.1465 17.2181 23.1031C17.2181 20.9976 15.7509 19.25 13.8995 19.25C12.5496 19.25 11.4029 20.1701 10.8838 21.4837L10.8162 21.6546H11H12.6668H12.7353L12.7721 21.597C13.0653 21.1385 13.4648 20.875 13.8995 20.875C14.303 20.875 14.682 21.1073 14.9651 21.5095C15.2479 21.9112 15.4273 22.4736 15.4273 23.1031C15.4273 24.3182 14.6886 25.2147 13.7853 25.3322C12.9926 25.4334 12.3304 25.6841 11.8638 26.0724C11.3938 26.4634 11.1271 26.9905 11.1271 27.625V29V29.125H11.2521H16.7149H16.8399V29V27.625V27.5H16.7149H13.2131C13.0986 27.5 12.9897 27.5261 12.8912 27.5779L12.9929 27.4165C13.0514 27.2711 13.1961 27.1647 13.3733 27.0876C13.5382 27.0158 13.7086 26.9791 13.8112 26.957C13.8167 26.9558 13.8221 26.9546 13.8273 26.9535ZM13.8273 26.9535C13.827 26.9535 13.8268 26.9536 13.8265 26.9536L13.8014 26.8312L13.8279 26.9533C13.8277 26.9534 13.8275 26.9534 13.8273 26.9535ZM17.2072 27.3531H21.3403V29V29.125H21.4653H23.0201H23.1451V29V27.3531H23.7905H23.9155V27.2281V25.8531V25.7281H23.7905H23.1451V19.5735V19.4485H23.0201H21.2692H21.2012L21.1643 19.5056L17.1022 25.7852L17.0822 25.8162V25.8531V27.2281V27.3531H17.2072ZM19.5464 25.7281C19.358 25.7281 19.1701 25.7608 18.9886 25.8259C19.1459 25.7079 19.2854 25.564 19.3976 25.3988L19.3977 25.3989L19.3992 25.3966L21.2896 22.4773C21.2897 22.4771 21.2897 22.477 21.2898 22.4769C21.321 22.4295 21.3485 22.3791 21.3728 22.3277C21.3527 22.4237 21.3403 22.5217 21.3403 22.6211V25.7281H19.5464ZM27.7646 17.875H27.6699L27.6442 17.9661L24.5487 28.9519L24.5039 29.1108H24.669H26.2098H26.3043L26.33 29.0199L29.4396 18.034L29.4846 17.875H29.3193H27.7646ZM30.5988 19.4485H30.4738V19.5735V20.9485V21.0735H30.5988H34.913C35.095 21.0735 35.2647 21.0277 35.4132 20.9448L35.3843 20.974C35.2878 21.0717 35.211 21.1976 35.1543 21.2981L35.1504 21.3049L35.1474 21.3122L32.0239 28.9527L31.9534 29.125H32.1396H33.6943H33.7781L33.81 29.0475L37.1156 20.9959L37.125 20.9731V20.9485V19.5735V19.4485H37H30.5988Z" fill="white" stroke="white" stroke-width="0.25"/>
</svg>
