<svg width="278" height="53" viewBox="0 0 278 53" fill="none" xmlns="http://www.w3.org/2000/svg">
<path d="M105.73 19.0758L103.732 23.2577H115.689L113.272 28.3026H101.316L96.473 38.3498H88.9922L98.9326 17.6383L100.681 14.0309H120.141L117.722 19.0758H105.73Z" fill="white"/>
<path d="M118.186 38.3498C114.363 38.3498 112.477 35.7659 114.019 32.5247L122.94 14.0309H130.4L122.191 31.0897C121.607 32.3215 122.315 33.3475 123.817 33.3475H128.69L137.983 14.0309H145.482L133.775 38.3498H118.186Z" fill="white"/>
<path d="M173.561 14.0309C172.103 17.0639 163.312 35.3143 161.854 38.3498H155.187L150.854 23.6666L143.77 38.3498H136.312L148.019 14.0309H154.687L159.02 28.7115L166.103 14.0309H173.561Z" fill="white"/>
<path d="M197.06 14.0309L194.644 19.0758L194.389 19.6076L175.472 33.345H187.762L185.346 38.3623H164.395L166.811 33.345L167.142 32.8132L186.059 19.0758H173.685L176.101 14.0309H197.06Z" fill="white"/>
<path d="M216.23 14.0309C220.104 14.0309 221.978 16.6549 220.438 19.8936L214.354 32.5247C212.771 35.7659 208.395 38.3498 204.521 38.3498H194.688C192.855 38.3498 191.354 37.7352 190.61 36.669C189.817 35.5602 189.776 34.0851 190.525 32.5247L196.609 19.8535C198.192 16.6549 202.569 14.0309 206.402 14.0309H216.23ZM203.772 33.3475C205.27 33.3475 206.937 32.324 207.562 31.0897L212.229 21.3311C212.853 20.0592 212.144 19.0733 210.646 19.0733H207.187C205.688 19.0733 204.021 20.0567 203.397 21.3311L198.687 31.0897C198.103 32.3215 198.812 33.3475 200.313 33.3475H203.772Z" fill="white"/>
<path d="M251.975 14.0309C250.517 17.0639 241.726 35.3143 240.268 38.3498H233.601L229.268 23.6666L222.184 38.3498H214.727L226.433 14.0309H233.101L237.434 28.7115L244.517 14.0309H251.975Z" fill="white"/>
<path d="M257.059 23.2577H270.433L268.016 28.3026H257.821C256.32 28.3026 254.653 29.3262 254.028 30.5604L252.695 33.3475H265.613L263.197 38.3648H242.809L247.272 29.123C248.801 25.8818 253.182 23.2577 257.059 23.2577ZM274.901 14.0309L272.484 19.0758H252.099L254.515 14.0309H274.901Z" fill="white"/>
<path fill-rule="evenodd" clip-rule="evenodd" d="M45.0467 10.8073C47.0211 10.8073 49.567 9.10341 50.7035 7.01768L54.5127 0H23.6511C21.6767 0 19.1308 1.70709 17.9975 3.78961L16.6452 6.27002L12.8359 13.246C14.2835 11.417 18.6991 10.9292 26.0669 10.9613C30.7237 10.9806 45.0467 10.8073 45.0467 10.8073Z" fill="white"/>
<path fill-rule="evenodd" clip-rule="evenodd" d="M46.4891 41.7082L39.5688 41.798C39.5688 41.798 35.7596 41.8494 34.3184 45.5652C33.2581 48.283 31.8265 51.7518 30.2266 52.6246H43.3242C45.2987 52.5989 47.0001 50.8212 48.108 48.7226L49.4317 46.2262L51.9967 41.3841C51.9967 41.3841 49.1016 41.6247 46.4891 41.7082Z" fill="white"/>
<path fill-rule="evenodd" clip-rule="evenodd" d="M43.761 20.8958L43.3515 20.9215C43.4595 20.9215 43.5674 20.899 43.669 20.8958H25.6542C23.3623 20.8958 21.8005 22.1344 20.9244 24.2715C19.5625 27.5798 17.6706 31.6999 17.6706 31.6999H26.9367L22.156 41.997L19.2133 48.328C18.0674 50.4875 17.2928 51.9796 16.6992 53L22.064 52.9069L24.8638 52.7208C27.2097 52.5668 29.6762 51.2416 30.6571 49.1526L43.761 20.8958Z" fill="white"/>
<path d="M13.4944 35.7077C11.2723 40.4311 10.6724 40.7103 0 41.3873C0 41.3873 7.53922 24.9775 11.831 15.996C13.5071 12.4855 20.4019 12.7872 24.2112 12.6075C24.208 12.6075 16.6974 28.8666 13.4944 35.7077Z" fill="white"/>
</svg>
