<svg width="39" height="39" viewBox="0 0 39 39" fill="none" xmlns="http://www.w3.org/2000/svg">
<rect opacity="0.25" x="0.5" y="0.5" width="38" height="38" rx="19" stroke="white"/>
<path fill-rule="evenodd" clip-rule="evenodd" d="M23.0001 13H17C15.3432 13 14 14.3432 14 16V22.0001C14 23.6569 15.3432 25.0001 17 25.0001H23.0001C24.6569 25.0001 26.0001 23.6569 26.0001 22.0001V16C26.0001 14.3432 24.6569 13 23.0001 13ZM20 18C19.4477 18 19 18.4477 19 19C19 19.5523 19.4477 20 20 20C20.5523 20 21 19.5523 21 19C21 18.4477 20.5523 18 20 18ZM16.5 19C16.5 17.067 18.067 15.5 20 15.5C21.933 15.5 23.5 17.067 23.5 19C23.5 20.933 21.933 22.5 20 22.5C18.067 22.5 16.5 20.933 16.5 19ZM24.625 15.625C24.625 14.9346 24.0654 14.375 23.375 14.375C22.6847 14.375 22.125 14.9346 22.125 15.625V15.626C22.125 16.3164 22.6847 16.876 23.375 16.876C24.0654 16.876 24.625 16.3164 24.625 15.626V15.625Z" fill="white"/>
<path d="M17 13.5H23.0001V12.5H17V13.5ZM14.5 16C14.5 14.6193 15.6193 13.5 17 13.5V12.5C15.067 12.5 13.5 14.067 13.5 16H14.5ZM14.5 22.0001V16H13.5V22.0001H14.5ZM17 24.5001C15.6193 24.5001 14.5 23.3808 14.5 22.0001H13.5C13.5 23.9331 15.067 25.5001 17 25.5001V24.5001ZM23.0001 24.5001H17V25.5001H23.0001V24.5001ZM25.5001 22.0001C25.5001 23.3808 24.3808 24.5001 23.0001 24.5001V25.5001C24.9331 25.5001 26.5001 23.9331 26.5001 22.0001H25.5001ZM25.5001 16V22.0001H26.5001V16H25.5001ZM23.0001 13.5C24.3808 13.5 25.5001 14.6193 25.5001 16H26.5001C26.5001 14.067 24.9331 12.5 23.0001 12.5V13.5ZM19.5 19C19.5 18.7239 19.7239 18.5 20 18.5V17.5C19.1716 17.5 18.5 18.1716 18.5 19H19.5ZM20 19.5C19.7239 19.5 19.5 19.2762 19.5 19H18.5C18.5 19.8285 19.1716 20.5 20 20.5V19.5ZM20.5 19C20.5 19.2762 20.2762 19.5 20 19.5V20.5C20.8284 20.5 21.5 19.8285 21.5 19H20.5ZM20 18.5C20.2762 18.5 20.5 18.7239 20.5 19H21.5C21.5 18.1716 20.8284 17.5 20 17.5V18.5ZM20 15C17.7909 15 16 16.7909 16 19H17C17 17.3432 18.3431 16 20 16V15ZM24 19C24 16.7909 22.2092 15 20 15V16C21.6569 16 23 17.3432 23 19H24ZM20 23C22.2092 23 24 21.2092 24 19H23C23 20.6569 21.6569 22 20 22V23ZM16 19C16 21.2092 17.7909 23 20 23V22C18.3431 22 17 20.6569 17 19H16ZM23.375 14.875C23.7892 14.875 24.125 15.2108 24.125 15.625H25.125C25.125 14.6585 24.3415 13.875 23.375 13.875V14.875ZM22.625 15.625C22.625 15.2108 22.9608 14.875 23.375 14.875V13.875C22.4085 13.875 21.625 14.6585 21.625 15.625H22.625ZM22.625 15.626V15.625H21.625V15.626H22.625ZM23.375 16.376C22.9608 16.376 22.625 16.0402 22.625 15.626H21.625C21.625 16.5925 22.4085 17.376 23.375 17.376V16.376ZM24.125 15.626C24.125 16.0402 23.7892 16.376 23.375 16.376V17.376C24.3415 17.376 25.125 16.5925 25.125 15.626H24.125ZM24.125 15.625V15.626H25.125V15.625H24.125Z" fill="white"/>
</svg>
