<svg width="36" height="36" viewBox="0 0 36 36" fill="none" xmlns="http://www.w3.org/2000/svg">
<path d="M0 0H36V36H0V0Z" fill="#F7DF1E"/>
<path d="M9.46484 30.084L12.2203 28.4175C12.7513 29.3595 13.2358 30.1575 14.3953 30.1575C15.5068 30.1575 16.2073 29.7225 16.2073 28.0305V16.527H19.5913V28.077C19.5913 31.5825 17.5363 33.177 14.5408 33.177C11.8333 33.177 10.2628 31.776 9.46484 30.084ZM21.4288 29.721L24.1828 28.1265C24.9088 29.3115 25.8508 30.1815 27.5173 30.1815C28.9198 30.1815 29.8123 29.4795 29.8123 28.5135C29.8123 27.354 28.8958 26.943 27.3493 26.2665L26.5033 25.9035C24.0628 24.864 22.4428 23.559 22.4428 20.8035C22.4428 18.2685 24.3778 16.3335 27.3973 16.3335C29.5483 16.3335 31.0948 17.0835 32.2063 19.041L29.5723 20.733C28.9918 19.6935 28.3633 19.2825 27.3973 19.2825C26.4073 19.2825 25.7773 19.911 25.7773 20.733C25.7773 21.747 26.4073 22.158 27.8563 22.788L28.7023 23.148C31.5778 24.381 33.1963 25.638 33.1963 28.4655C33.1963 31.5105 30.8038 33.177 27.5908 33.177C24.4483 33.177 22.4188 31.68 21.4288 29.7225" fill="black"/>
</svg>
