<svg width="36" height="36" viewBox="0 0 36 36" fill="none" xmlns="http://www.w3.org/2000/svg">
<path d="M0 26.493L2.7 13.7925H8.946C11.646 13.9485 12.996 15.2025 12.996 17.3985C12.996 21.162 9.789 23.3565 6.921 23.199H3.8805L3.2055 26.493H0ZM4.557 20.8485H6.582C8.1015 20.691 9.4515 20.2215 9.621 17.556C9.621 16.614 8.7765 16.1445 7.596 16.1445H5.4L4.5555 20.8485H4.557ZM12.369 23.199L15.069 10.5H18.276L17.601 13.7925H20.6385C23.3385 13.9485 24.3525 15.2025 24.0135 16.7715L22.833 23.199H19.458L20.6385 17.3985C20.808 16.614 20.808 16.1445 19.626 16.1445H17.094L15.576 23.199H12.369ZM22.617 26.493L25.317 13.7925H31.563C34.263 13.9485 35.613 15.2025 35.613 17.3985C35.613 21.162 32.406 23.3565 29.538 23.199H26.499L25.824 26.493H22.617ZM27.174 20.8485H29.199C30.7185 20.691 32.0685 20.2215 32.238 17.556C32.238 16.614 31.3935 16.1445 30.213 16.1445H28.0185L27.174 20.8485Z" fill="#6983B5"/>
</svg>
