<svg width="36" height="36" viewBox="0 0 36 36" fill="none" xmlns="http://www.w3.org/2000/svg">
<path d="M29.2021 12.4245C28.8338 12.2944 28.4622 12.1739 28.0876 12.063C28.1491 11.8035 28.2076 11.5425 28.2586 11.28C29.1046 7.06198 28.5511 3.66298 26.6656 2.54398C24.8581 1.47148 21.9001 2.58898 18.9136 5.26498C18.6188 5.52914 18.3307 5.80073 18.0496 6.07948C17.8615 5.89394 17.67 5.71191 17.4751 5.53348C14.3461 2.67448 11.2081 1.46848 9.32415 2.59048C7.51515 3.66748 6.98265 6.86248 7.74315 10.86C7.81815 11.256 7.90365 11.649 7.99815 12.0405C7.55415 12.171 7.12665 12.309 6.71565 12.456C3.04665 13.7715 0.702148 15.8355 0.702148 17.976C0.702148 20.1855 3.21765 22.401 7.04115 23.7465C7.35015 23.8545 7.66365 23.9565 7.97865 24.0465C7.87515 24.4695 7.78365 24.894 7.70565 25.3215C6.98115 29.2485 7.54665 32.3685 9.34815 33.4365C11.2096 34.542 14.3326 33.4065 17.3746 30.672C17.6146 30.456 17.8561 30.2265 18.0976 29.985C18.4021 30.288 18.7141 30.5805 19.0351 30.8655C21.9811 33.474 24.8911 34.5255 26.6911 33.4545C28.5511 32.3475 29.1541 28.9965 28.3711 24.9195C28.3087 24.5999 28.2386 24.2818 28.1611 23.9655C28.3816 23.8995 28.5961 23.8305 28.8061 23.7585C32.7811 22.404 35.3656 20.2155 35.3656 17.9745C35.3656 15.828 32.9461 13.7505 29.2021 12.4245Z" fill="#53C1DE"/>
<path d="M28.3416 22.3125C28.1511 22.377 27.9576 22.44 27.7596 22.5C27.2757 20.9567 26.6894 19.4473 26.0046 17.982C26.6946 16.4505 27.2646 14.9505 27.6906 13.53C28.0461 13.635 28.3896 13.7475 28.7211 13.866C31.9296 15.0015 33.8856 16.6815 33.8856 17.976C33.8856 19.353 31.7721 21.144 28.3416 22.3125ZM26.9166 25.215C27.2646 27.018 27.3141 28.6485 27.0846 29.922C26.8776 31.0665 26.4621 31.83 25.9491 32.136C24.8571 32.787 22.5201 31.941 20.0016 29.7105C19.7121 29.4555 19.4211 29.181 19.1301 28.893C20.1823 27.6944 21.153 26.4266 22.0356 25.098C23.6162 24.9605 25.1851 24.7113 26.7306 24.3525C26.8011 24.6465 26.8641 24.9345 26.9181 25.215H26.9166ZM12.5211 32.025C11.4546 32.4135 10.6041 32.424 10.0911 32.1195C8.99607 31.47 8.54307 28.965 9.16257 25.6065C9.23757 25.209 9.32007 24.8145 9.41607 24.4215C10.8351 24.7455 12.4071 24.9765 14.0871 25.1175C15.0471 26.5065 16.0506 27.783 17.0631 28.9005C16.8471 29.115 16.6281 29.3235 16.4031 29.526C15.0576 30.735 13.7091 31.593 12.5226 32.025H12.5211ZM7.52157 22.305C5.83107 21.711 4.43607 20.94 3.47907 20.097C2.61957 19.3395 2.18457 18.5865 2.18457 17.976C2.18457 16.6785 4.06707 15.021 7.20507 13.896C7.59957 13.755 7.99707 13.626 8.39907 13.5105C8.83257 14.961 9.40107 16.479 10.0881 18.0135C9.42022 19.4976 8.84903 21.0233 8.37807 22.581C8.09031 22.4967 7.80472 22.4052 7.52157 22.3065V22.305ZM9.19557 10.569C8.54457 7.14303 8.97807 4.56003 10.0656 3.91053C11.2266 3.22053 13.7901 4.20603 16.4931 6.67353C16.6656 6.83253 16.8381 6.99753 17.0136 7.16853C15.9476 8.35534 14.961 9.61106 14.0601 10.9275C12.4296 11.0835 10.8696 11.3325 9.43407 11.667C9.3456 11.303 9.26607 10.9369 9.19557 10.569ZM24.1506 14.3655C23.8117 13.7636 23.4602 13.169 23.0961 12.582C24.2016 12.726 25.2621 12.9165 26.2566 13.1505C25.9581 14.136 25.5861 15.165 25.1466 16.221C24.8271 15.5955 24.4941 14.976 24.1506 14.3655ZM18.0531 8.25603C18.7356 9.01653 19.4196 9.86703 20.0931 10.7895C18.7279 10.723 17.3603 10.7225 15.9951 10.788C16.6701 9.87303 17.3601 9.02554 18.0531 8.25603ZM11.9166 14.376C11.5761 14.982 11.2491 15.597 10.9371 16.221C10.521 15.2102 10.1536 14.18 9.83607 13.134C10.8261 12.906 11.8791 12.72 12.9786 12.579C12.6111 13.17 12.2571 13.7685 11.9166 14.376ZM13.0101 23.481C11.9365 23.3608 10.87 23.1841 9.81507 22.9515C10.1211 21.9345 10.4991 20.8785 10.9401 19.803C11.5724 21.0601 12.2632 22.287 13.0101 23.4795V23.481ZM18.0936 27.801C17.3574 26.9803 16.6616 26.1243 16.0086 25.236C17.3816 25.2894 18.7563 25.2864 20.1291 25.227C19.4541 26.172 18.7716 27.0345 18.0936 27.8025V27.801ZM25.1616 19.7475C25.6251 20.835 26.0166 21.8865 26.3256 22.8855C25.3206 23.121 24.2346 23.3115 23.0916 23.4525C23.8349 22.2481 24.5256 21.0119 25.1616 19.7475ZM22.8726 20.877C22.3476 21.8145 21.7926 22.737 21.2106 23.637C20.1816 23.712 19.1196 23.751 18.0366 23.751C16.9566 23.751 15.9081 23.7165 14.8971 23.649C13.7009 21.8515 12.6404 19.9673 11.7246 18.012C12.6337 16.0597 13.6882 14.1784 14.8791 12.384C16.9824 12.2206 19.0952 12.2206 21.1986 12.384C21.7866 13.2795 22.3431 14.1945 22.8681 15.129C23.3961 16.065 23.8956 17.019 24.3636 17.9895C23.8986 18.9705 23.4036 19.9335 22.8741 20.877H22.8726ZM25.9281 3.86403C27.0891 4.55403 27.5406 7.32903 26.8116 10.9725C26.7636 11.2095 26.7111 11.4465 26.6556 11.682C25.2171 11.34 23.6556 11.0865 22.0206 10.9275C21.1287 9.60949 20.1495 8.35267 19.0896 7.16553C19.3491 6.90903 19.6146 6.65703 19.8876 6.41403C22.4466 4.12203 24.8376 3.21903 25.9281 3.86403Z" fill="white"/>
<path d="M18.0345 14.7899C19.7445 14.7899 21.129 16.2149 21.129 17.9744C21.129 19.7339 19.743 21.1589 18.0345 21.1589C16.3245 21.1589 14.9385 19.7339 14.9385 17.9744C14.9385 16.2164 16.3245 14.7899 18.0345 14.7899Z" fill="#53C1DE"/>
</svg>
